<?xml version="1.0" standalone="no"?>
<!DOCTYPE svg PUBLIC "-//W3C//DTD SVG 20010904//EN"
 "http://www.w3.org/TR/2001/REC-SVG-20010904/DTD/svg10.dtd">
<svg version="1.0" xmlns="http://www.w3.org/2000/svg"
 width="810.000000pt" height="810.000000pt" viewBox="0 0 810.000000 810.000000"
 preserveAspectRatio="xMidYMid meet">
<metadata>
Created by potrace 1.14, written by Peter Selinger 2001-2017
</metadata>
<g transform="translate(0.000000,810.000000) scale(0.100000,-0.100000)"
fill="#000000" stroke="none">
<path d="M2731 7179 c-589 -79 -1111 -304 -1581 -682 -104 -84 -372 -355 -450
-455 -378 -486 -584 -968 -666 -1562 -25 -176 -25 -615 0 -790 87 -624 333
-1175 730 -1636 397 -462 913 -795 1491 -963 137 -40 340 -84 440 -96 28 -3
82 -10 120 -15 74 -9 602 -7 670 4 22 3 87 13 144 22 509 77 1035 311 1452
645 129 104 342 313 446 439 93 113 203 264 203 279 0 28 -25 2 -106 -107
-329 -443 -737 -773 -1230 -997 -246 -111 -593 -211 -834 -240 -30 -4 -66 -9
-80 -10 -250 -32 -593 -22 -877 26 -1025 173 -1909 873 -2316 1834 -121 285
-194 563 -231 880 -13 116 -15 585 -3 645 3 14 8 51 12 84 8 70 11 87 31 191
212 1089 995 1983 2049 2339 219 74 506 133 745 152 105 9 405 9 483 0 31 -3
83 -9 115 -12 247 -24 591 -115 847 -224 514 -219 934 -550 1276 -1006 94
-125 119 -151 119 -123 0 14 -137 202 -214 294 -91 108 -320 331 -436 424
-421 338 -951 572 -1475 650 -38 6 -88 13 -110 17 -22 3 -170 8 -330 9 -243 3
-313 0 -434 -16z"/>
<path d="M4292 5709 c-5 -12 -8 -748 -8 -1635 1 -1667 1 -1663 38 -1626 10 10
13 352 13 1615 1 881 -2 1615 -5 1631 -7 37 -27 45 -38 15z"/>
<path d="M4522 5665 c-4 -5 -7 -19 -7 -30 0 -17 7 -20 55 -22 30 0 61 -1 68
-2 9 -1 12 -48 12 -201 0 -153 -3 -200 -12 -201 -7 0 -38 -1 -68 -2 -56 -2
-59 -4 -51 -54 1 -5 74 -8 164 -8 l162 0 3 31 3 31 -61 -1 c-46 -1 -64 3 -69
14 -12 26 -7 380 6 388 6 4 36 6 67 6 55 -2 56 -1 56 27 0 23 -5 29 -22 30
-138 5 -301 2 -306 -6z"/>
<path d="M4985 5670 c-17 -3 -29 -9 -27 -13 1 -4 2 -16 2 -26 0 -17 7 -19 75
-18 l75 2 0 -232 c0 -243 0 -244 45 -235 20 3 20 9 20 233 0 149 3 229 10 230
5 1 40 1 78 1 l67 1 0 28 c0 23 -5 29 -22 30 -96 4 -299 3 -323 -1z"/>
<path d="M4013 5325 c-37 -16 -65 -48 -66 -77 -2 -22 -25 -30 -406 -137 -359
-101 -405 -112 -413 -97 -14 25 -66 48 -99 42 -68 -10 -105 -66 -88 -130 10
-36 6 -41 -85 -108 -39 -29 -73 -55 -76 -58 -3 -3 -24 -21 -48 -39 -38 -29
-46 -32 -70 -22 -75 29 -150 10 -184 -47 -13 -21 -24 -29 -40 -27 -62 8 -265
36 -283 39 -11 3 -24 5 -28 5 -5 1 -6 5 -3 9 8 14 -24 69 -50 82 -44 24 -94
17 -126 -18 -50 -57 -33 -137 35 -166 30 -12 39 -30 161 -336 110 -276 127
-325 114 -334 -44 -33 -50 -100 -12 -145 l26 -31 -32 -142 c-50 -225 -46 -216
-80 -223 -33 -7 -87 -63 -96 -100 -16 -65 28 -144 92 -165 92 -31 184 39 184
138 l0 39 98 31 c182 58 179 57 215 40 43 -20 86 -13 122 22 32 31 20 29 175
16 25 -3 64 -5 88 -5 37 -1 42 -4 42 -23 0 -33 35 -85 72 -109 41 -25 107 -21
150 11 l29 21 142 -66 c78 -37 173 -81 210 -98 65 -30 67 -32 63 -61 -14 -89
59 -195 147 -214 86 -18 150 6 209 79 72 89 36 234 -72 289 -34 17 -37 22 -34
57 1 21 4 65 5 98 3 71 7 85 25 85 18 0 64 47 66 68 0 9 2 24 3 32 2 24 -23
69 -50 86 -17 11 -38 15 -64 11 -34 -4 -42 -1 -58 22 -11 14 -44 59 -73 99
l-53 73 20 22 c22 26 40 66 38 87 -1 8 -3 27 -3 42 -2 34 -47 87 -90 105 -38
16 -38 9 4 176 27 105 28 107 56 107 62 0 130 47 164 111 37 72 11 188 -54
241 l-30 23 77 183 c69 166 79 184 110 200 46 23 72 73 60 114 -19 66 -78 97
-136 73z m71 -26 c37 -17 54 -65 35 -98 -22 -38 -63 -56 -99 -41 -62 25 -62
118 0 143 23 9 37 8 64 -4z m-126 -119 c7 -11 25 -28 41 -38 l29 -18 -75 -181
c-44 -105 -80 -180 -87 -177 -59 20 -149 0 -193 -45 l-29 -28 -154 74 c-85 41
-198 94 -250 119 -119 56 -128 76 -42 100 31 9 210 60 397 114 187 54 342 98
345 99 3 1 11 -8 18 -19z m-932 -170 c-3 -11 -9 -30 -13 -42 -3 -12 -2 -19 3
-15 5 3 10 -8 10 -24 3 -52 24 -53 29 -2 2 15 6 36 10 45 5 12 2 20 -7 23 -18
7 -20 35 -2 35 28 0 58 -37 58 -73 0 -74 -77 -104 -130 -52 -30 30 -27 80 7
108 28 23 43 22 35 -3z m491 -286 l112 -53 -11 -31 c-13 -39 -6 -116 15 -159
15 -31 15 -32 -6 -41 -12 -4 -80 -36 -152 -70 -208 -99 -276 -130 -286 -130
-5 0 -22 9 -37 20 -15 11 -51 26 -80 33 -29 7 -51 15 -48 18 2 2 7 81 11 174
4 94 8 193 10 220 2 28 3 70 4 95 1 41 4 47 35 64 19 10 37 25 40 32 4 10 41
-3 143 -52 76 -37 188 -90 250 -120z m-513 135 c20 -10 24 -17 21 -48 -3 -35
-22 -405 -24 -488 -1 -17 -7 -23 -25 -23 -13 0 -49 -13 -80 -29 l-55 -30 -66
115 c-63 109 -65 115 -50 138 21 32 21 105 1 145 -17 32 -17 32 11 54 105 83
229 176 235 177 4 0 18 -5 32 -11z m-937 -124 c47 -33 36 -115 -18 -134 -48
-16 -95 10 -104 59 -12 64 67 113 122 75z m1813 -5 c121 -62 132 -222 19 -297
-62 -41 -162 -31 -215 21 -22 22 -46 79 -49 115 -5 69 33 132 100 162 52 24
97 24 145 -1z m-1222 -60 c32 -20 62 -71 62 -106 0 -31 -33 -85 -61 -100 -113
-58 -223 52 -165 164 31 60 104 78 164 42z m-413 -46 c11 -1 62 -8 113 -14
l92 -13 0 -29 c0 -39 23 -92 49 -110 20 -14 20 -16 -62 -274 l-82 -259 -30 3
c-17 2 -30 5 -31 5 0 1 -57 144 -126 317 l-126 315 28 17 c16 9 34 27 40 38
10 20 17 21 63 14 29 -4 61 -8 72 -10z m486 -242 c18 -31 45 -80 61 -109 l29
-52 -26 -39 c-27 -41 -45 -118 -39 -166 l4 -31 -163 -58 c-89 -32 -166 -57
-172 -57 -5 0 -18 11 -28 25 -19 26 -29 -11 105 405 l40 125 59 0 c32 1 64 6
70 12 17 17 22 11 60 -55z m990 19 l47 -24 -34 -130 c-19 -72 -39 -136 -44
-141 -6 -6 -10 -7 -10 -2 0 4 -19 -3 -42 -16 -29 -16 -47 -36 -62 -69 l-21
-45 -146 -1 -146 -1 5 44 c6 53 -12 128 -40 166 -11 16 -19 31 -17 33 9 8 455
214 459 212 3 -1 26 -13 51 -26z m-604 -153 c77 -36 123 -111 124 -202 3 -236
-309 -320 -429 -116 -22 37 -27 57 -27 115 1 80 15 115 70 166 71 68 169 82
262 37z m654 -185 c31 -18 59 -67 59 -103 0 -39 -30 -88 -65 -104 -111 -53
-218 53 -161 161 30 59 108 81 167 46z m-995 -125 c3 -12 26 -43 51 -69 24
-26 40 -50 35 -53 -6 -3 -13 -18 -17 -33 -3 -16 -24 -78 -46 -139 l-41 -111
-49 5 c-33 3 -54 0 -65 -9 -15 -12 -30 0 -129 105 l-112 119 15 41 c9 22 17
43 18 45 3 3 313 118 326 120 4 1 10 -9 14 -21z m801 -37 c29 -61 71 -85 147
-86 l59 0 69 -94 c65 -90 68 -95 53 -117 -8 -13 -15 -38 -15 -57 l0 -34 -142
-33 c-79 -19 -147 -35 -153 -36 -5 -1 -59 -14 -119 -28 -60 -15 -111 -24 -113
-22 -3 2 -12 19 -21 38 -25 49 -78 80 -130 76 -31 -2 -43 1 -47 12 -5 18 -45
260 -45 276 0 5 20 24 44 41 24 17 54 49 66 71 l22 40 152 -1 151 0 22 -46z
m-1259 -13 c-2 -7 -7 -16 -11 -19 -12 -9 4 -110 17 -106 16 5 32 100 17 105
-15 5 -14 32 1 32 22 0 58 -43 58 -70 0 -84 -113 -112 -145 -36 -19 46 10 106
52 106 7 0 12 -6 11 -12z m691 -99 c33 0 65 2 71 6 5 3 10 4 10 2 0 -2 4 -28
10 -58 5 -30 12 -70 15 -89 3 -19 8 -42 10 -50 2 -8 7 -39 10 -68 5 -41 3 -53
-9 -58 -8 -3 -21 -20 -30 -38 -12 -25 -21 -33 -38 -31 -13 1 -72 6 -133 10
-60 4 -114 11 -119 16 -6 5 -7 9 -3 9 4 0 0 17 -9 38 -15 38 -14 41 31 163 73
197 62 179 95 162 16 -8 56 -14 89 -14z m-406 -314 c-3 -11 -5 -37 -5 -57 1
-24 -3 -38 -11 -38 -6 0 -68 -18 -136 -40 l-125 -40 -29 30 c-16 17 -34 30
-41 30 -36 1 -37 15 -11 131 14 63 28 125 30 139 14 72 21 84 54 91 17 4 35
10 39 14 4 4 60 -49 124 -116 94 -98 116 -128 111 -144z m1417 145 c19 0 50
-45 50 -72 0 -39 -40 -78 -79 -78 -51 0 -88 58 -70 108 9 24 58 53 77 47 8 -3
18 -5 22 -5z m-1265 -130 c24 -25 25 -84 2 -107 -21 -22 -91 -23 -111 -3 -8 8
-17 30 -21 47 -6 28 -2 38 24 64 26 25 37 30 59 24 15 -3 36 -15 47 -25z m530
-27 c68 -51 59 -154 -17 -192 -38 -19 -56 -18 -110 4 -44 18 -65 96 -39 145
33 63 112 83 166 43z m653 1 l40 -26 -3 -66 c-2 -37 -4 -84 -4 -104 -1 -37 -2
-38 -38 -38 -53 0 -120 -36 -149 -80 -29 -44 -19 -45 -159 22 -38 19 -118 56
-176 83 -98 46 -106 52 -96 70 6 11 9 22 8 25 -4 6 60 28 102 35 18 3 40 8 49
11 9 3 25 7 35 9 10 2 47 12 83 20 36 9 74 18 85 21 11 2 54 13 95 23 41 10
78 19 82 20 3 1 24 -11 46 -25z m-1668 -143 c14 -10 31 -34 37 -55 34 -102
-88 -190 -172 -124 -53 42 -61 102 -21 160 32 46 106 55 156 19z m1745 -131
c74 -29 118 -140 87 -221 -15 -38 -67 -86 -108 -99 -83 -28 -190 27 -215 110
-43 144 93 264 236 210z"/>
<path d="M4034 5283 c-11 -25 -13 -53 -3 -53 4 0 7 -12 6 -27 -1 -14 4 -28 11
-30 10 -4 18 22 13 50 0 4 3 7 7 7 5 0 8 10 7 23 -2 12 -7 21 -13 20 -6 -2 -9
4 -6 12 9 21 -12 19 -22 -2z"/>
<path d="M2001 4710 c-6 -18 -6 -30 0 -30 5 0 9 -16 9 -35 0 -24 5 -35 14 -35
10 0 14 11 12 40 -2 21 1 37 6 34 13 -8 9 19 -6 39 -18 23 -22 22 -35 -13z"/>
<path d="M3785 4710 c-4 -6 -1 -17 5 -25 10 -12 9 -15 -8 -15 -23 0 -29 -12
-26 -57 3 -57 4 -59 14 -43 7 11 10 -5 10 -52 0 -67 0 -67 28 -65 26 2 27 4
26 64 0 46 3 60 13 56 9 -4 13 5 13 30 0 49 -9 67 -32 67 -17 0 -18 3 -8 15
13 16 6 35 -15 35 -8 0 -17 -5 -20 -10z"/>
<path d="M2585 4650 c4 -14 2 -20 -7 -18 -8 2 -14 -10 -16 -34 -2 -22 1 -38 7
-38 6 0 10 -15 9 -32 -1 -52 1 -56 21 -51 14 3 19 14 19 36 0 18 5 43 10 57 7
19 5 35 -7 63 -17 39 -48 54 -36 17z"/>
<path d="M2998 4229 c-10 -6 -18 -16 -18 -24 0 -8 8 -19 18 -24 15 -9 13 -10
-10 -11 -35 0 -46 -22 -43 -85 1 -38 5 -50 17 -49 13 1 15 -11 13 -73 -2 -78
2 -87 45 -87 24 0 25 2 31 89 3 50 6 84 7 78 1 -7 7 -13 12 -13 14 0 12 114
-2 128 -7 7 -20 12 -30 12 -16 0 -16 3 -6 20 17 27 -8 54 -34 39z m59 -131
c-3 -8 -6 -5 -6 6 -1 11 2 17 5 13 3 -3 4 -12 1 -19z"/>
<path d="M3695 4060 c-3 -5 -4 -14 -1 -19 3 -5 -1 -11 -9 -15 -9 -3 -15 -19
-15 -41 0 -24 4 -34 11 -29 7 4 10 -4 9 -22 -4 -54 0 -64 20 -64 17 0 20 7 20
45 0 25 5 45 10 45 6 0 10 5 10 11 0 5 -4 8 -8 5 -5 -3 -9 1 -9 9 0 8 4 12 9
9 14 -9 9 14 -7 30 -8 8 -15 19 -15 25 0 15 -18 23 -25 11z"/>
<path d="M3973 3585 c-6 -20 -7 -35 -2 -35 5 0 9 -16 9 -35 0 -26 4 -33 14
-29 8 3 15 13 15 22 1 9 2 33 4 52 1 23 -2 34 -10 33 -7 -2 -10 4 -7 12 4 8 2
15 -3 15 -5 0 -14 -16 -20 -35z"/>
<path d="M2685 3493 c-12 -29 -14 -63 -4 -63 5 0 9 -6 8 -12 -1 -7 -1 -22 0
-33 2 -19 2 -19 16 -2 7 11 11 25 8 33 -3 8 -1 14 3 14 5 0 9 11 9 25 0 14 -3
25 -7 25 -5 0 -8 7 -8 15 0 21 -16 19 -25 -2z"/>
<path d="M3203 3450 c-3 -11 -9 -20 -14 -20 -12 0 -11 -57 1 -65 6 -3 10 -23
10 -43 0 -32 3 -38 21 -38 18 0 20 5 17 38 -2 21 -1 38 3 38 4 0 9 13 11 30 5
31 -6 50 -26 46 -6 -2 -8 -1 -3 1 11 7 8 33 -4 33 -6 0 -13 -9 -16 -20z"/>
<path d="M2190 3316 c0 -7 -6 -19 -14 -25 -10 -9 -12 -21 -5 -49 5 -20 9 -51
9 -67 0 -24 4 -31 20 -31 16 0 20 7 20 32 0 18 5 45 10 60 8 21 7 35 -5 61
-16 34 -35 44 -35 19z"/>
<path d="M3924 3165 c-4 -9 -1 -20 5 -25 9 -5 4 -10 -14 -14 -24 -6 -26 -10
-23 -54 2 -26 8 -46 13 -45 6 1 10 -22 10 -58 -2 -63 7 -81 24 -52 10 17 10
17 11 0 0 -10 5 -15 10 -12 6 3 10 33 10 66 0 33 4 58 9 55 11 -7 19 42 11 73
-3 13 -12 27 -20 30 -8 3 -15 15 -15 25 0 25 -23 33 -31 11z"/>
<path d="M4605 5078 c-81 -29 -115 -110 -81 -192 18 -43 66 -71 146 -87 115
-21 149 -52 136 -123 -5 -26 -15 -40 -36 -51 -63 -33 -150 -21 -191 26 -10 12
-21 41 -25 65 -6 40 -9 44 -34 44 -34 0 -39 -13 -28 -65 25 -112 125 -167 263
-142 74 13 126 82 120 161 -6 74 -57 116 -173 141 -84 17 -107 30 -123 66 -23
57 28 109 106 109 69 0 131 -55 123 -109 -2 -11 6 -17 30 -19 31 -3 32 -2 32
36 0 108 -142 183 -265 140z"/>
<path d="M5053 5070 c-33 -17 -48 -34 -68 -75 -23 -46 -26 -65 -27 -161 -1
-123 6 -165 34 -211 66 -110 253 -101 310 15 21 42 23 61 23 182 0 154 -12
191 -73 238 -48 37 -139 42 -199 12z m168 -71 c35 -38 43 -77 42 -200 -1 -132
-30 -184 -105 -192 -50 -6 -93 15 -114 55 -22 41 -30 223 -12 281 27 88 131
118 189 56z"/>
<path d="M5525 5076 c-76 -34 -102 -96 -104 -251 -3 -174 36 -252 133 -273
121 -26 228 44 230 150 1 39 -1 42 -26 43 -16 1 -28 -1 -29 -4 -7 -56 -31
-106 -59 -121 -18 -10 -60 -14 -103 -11 -22 1 -59 44 -73 84 -6 18 -10 79 -9
137 3 151 33 200 123 200 37 0 50 -6 78 -34 19 -19 34 -43 34 -54 0 -38 11
-52 42 -52 l31 0 -7 47 c-7 56 -46 110 -97 135 -40 21 -121 23 -164 4z"/>
<path d="M5955 5080 c-56 -5 -60 -7 -60 -30 0 -24 3 -25 68 -28 l67 -3 0 -203
0 -202 -57 1 c-32 1 -63 0 -69 -2 -9 -3 -12 -28 -5 -53 1 -4 279 -5 319 -1 6
0 12 12 12 25 0 29 -11 34 -77 30 -29 -1 -54 1 -55 4 0 4 -2 96 -3 204 l-2
197 66 3 c64 3 66 4 69 31 3 27 3 27 -60 28 -35 0 -83 1 -108 2 -25 1 -72 0
-105 -3z"/>
<path d="M6436 4998 c-14 -46 -50 -163 -79 -260 -52 -170 -53 -177 -34 -182
33 -8 49 8 68 71 l19 59 109 -1 c61 -1 112 -3 114 -6 2 -2 11 -31 21 -65 18
-59 20 -61 50 -60 24 2 30 6 28 20 -2 10 -36 126 -76 259 l-73 242 -61 3 -61
3 -25 -83z m132 -95 c24 -82 43 -150 42 -153 0 -7 -180 -7 -180 0 0 15 86 300
90 300 3 0 25 -66 48 -147z"/>
<path d="M6815 4818 l0 -263 163 0 c90 0 166 2 170 5 10 7 13 50 4 51 -4 1
-65 2 -137 3 l-130 1 -3 233 -2 232 -33 0 -32 0 0 -262z"/>
<path d="M4597 4403 c-74 -239 -127 -419 -127 -430 0 -8 12 -12 31 -10 28 2
32 7 52 67 l22 65 95 0 c52 0 102 -1 111 -3 10 -2 23 -28 35 -65 18 -59 20
-62 52 -62 17 -1 32 2 32 5 0 3 -35 120 -78 260 l-77 255 -60 3 -61 3 -27 -88z
m132 -84 c22 -74 41 -142 41 -150 0 -11 -18 -14 -90 -15 -49 -1 -90 0 -90 1 0
3 80 279 86 294 2 8 6 12 8 10 2 -2 22 -65 45 -140z"/>
<path d="M4969 4468 c-1 -28 -1 -478 0 -495 1 -6 14 -11 31 -11 l30 1 0 250
c0 138 3 247 7 244 5 -6 67 -202 139 -444 l15 -52 62 2 62 3 3 262 2 262 -33
0 -34 0 2 -237 c0 -131 -1 -242 -4 -247 -5 -10 -42 101 -113 342 l-42 142 -63
0 c-58 0 -63 -2 -64 -22z"/>
<path d="M5426 4468 c1 -13 3 -26 3 -30 1 -5 10 -8 21 -8 19 0 20 -7 20 -205
0 -159 -3 -206 -12 -204 -29 3 -34 -2 -30 -30 l4 -30 117 3 c64 2 129 9 146
15 72 29 96 96 94 256 -3 218 -41 255 -262 255 -102 0 -104 0 -101 -22z m233
-49 c52 -18 64 -55 64 -194 0 -129 -7 -154 -49 -181 -24 -16 -133 -28 -135
-15 -4 21 -5 378 -1 389 5 15 78 16 121 1z"/>
<path d="M7839 3901 c-45 -14 -74 -39 -99 -83 -21 -37 -24 -57 -26 -158 -1
-63 3 -136 9 -163 29 -127 188 -181 271 -92 l23 25 6 -30 c5 -24 12 -30 32
-30 14 0 25 6 26 13 6 83 2 230 -6 235 -5 4 -58 7 -117 7 l-108 1 0 -31 0 -31
83 0 c81 1 82 1 83 -24 0 -33 -23 -84 -47 -98 -61 -38 -144 -16 -173 46 -27
55 -25 246 3 300 45 88 169 82 206 -10 8 -21 15 -45 15 -53 0 -10 10 -15 28
-15 39 0 41 4 30 53 -11 52 -43 100 -81 122 -33 20 -120 28 -158 16z"/>
<path d="M4520 3823 c-1 -90 -1 -348 0 -410 l0 -42 168 2 167 2 1 28 1 27
-137 0 -138 0 0 218 c0 119 -1 225 -1 235 -1 12 -9 17 -31 17 l-30 0 0 -77z"/>
<path d="M4984 3638 l1 -263 159 0 159 0 4 28 4 27 -131 0 c-143 0 -132 -6
-132 65 0 14 0 45 1 69 l1 44 113 0 c149 0 139 -2 135 30 l-3 27 -123 0 -122
0 -1 25 c-1 28 -1 106 0 133 1 15 14 17 126 17 l125 0 0 30 0 30 -158 0 -159
0 1 -262z"/>
<path d="M5540 3895 c0 -3 -34 -116 -75 -252 -41 -135 -75 -252 -75 -260 0 -8
12 -13 29 -13 28 0 31 4 47 58 10 31 21 61 25 66 6 7 122 11 204 7 16 -1 24
-14 39 -66 18 -64 19 -65 52 -65 31 0 34 2 29 23 -4 12 -39 130 -79 262 l-73
240 -61 3 c-34 2 -62 0 -62 -3z m105 -155 c21 -69 39 -137 42 -151 l5 -26 -91
0 c-106 0 -101 -20 -47 162 42 141 45 149 50 144 3 -2 21 -60 41 -129z"/>
<path d="M5895 3638 l0 -263 33 -3 32 -3 0 110 0 111 88 0 c48 0 92 -4 99 -8
8 -5 13 -44 15 -107 l3 -100 30 0 30 0 1 105 c0 96 -2 107 -22 127 -17 17 -20
25 -10 30 49 30 66 142 29 191 -45 60 -65 67 -201 70 l-127 4 0 -264z m261
169 c39 -45 30 -118 -17 -142 -17 -9 -57 -15 -104 -15 l-75 0 0 96 0 96 86 -3
c79 -4 87 -6 110 -32z"/>
<path d="M6345 3638 l0 -263 33 -3 32 -3 0 252 c0 139 2 250 5 248 2 -3 23
-65 45 -139 23 -74 57 -186 76 -248 l35 -113 59 2 c33 1 61 7 63 13 2 6 3 124
3 261 l-1 250 -31 3 -32 3 -1 -247 c-1 -136 -3 -249 -4 -251 -2 -2 -37 108
-78 244 l-75 248 -65 3 -64 3 0 -263z"/>
<path d="M6812 3870 l-2 -30 70 0 70 0 0 -205 0 -205 -70 0 -70 0 0 -29 0 -30
170 0 170 1 0 29 0 29 -69 0 -69 0 -1 205 -2 205 71 0 71 0 -3 28 -3 27 -165
3 -166 2 -2 -30z"/>
<path d="M7269 3898 c-5 -8 -6 -496 -2 -511 3 -13 12 -17 31 -15 l27 3 5 250
5 250 32 -105 c17 -58 51 -170 75 -250 l44 -145 59 -3 c32 -2 61 1 64 7 5 8 7
484 2 514 0 4 -14 7 -31 7 l-30 0 0 -252 c0 -138 -2 -249 -5 -247 -2 3 -20 59
-40 124 -20 66 -54 177 -76 248 l-40 127 -59 0 c-33 0 -61 -1 -61 -2z"/>
<path d="M4629 3310 c-90 -26 -121 -84 -127 -237 -7 -178 23 -254 113 -288 52
-20 132 -16 171 9 40 27 74 81 80 129 l7 47 -32 0 c-17 0 -32 -4 -32 -10 -1
-5 -3 -14 -4 -20 -1 -5 -3 -17 -4 -25 0 -8 -13 -29 -28 -45 -56 -62 -158 -47
-190 28 -23 55 -22 244 1 294 49 103 201 77 220 -38 6 -35 10 -39 34 -38 67 2
21 138 -62 181 -34 18 -109 24 -147 13z"/>
<path d="M4979 3281 c-1 -39 -1 -421 0 -463 l1 -38 169 0 168 0 -1 28 -1 27
-135 5 -135 5 -2 200 c-1 110 -2 214 -2 232 -1 29 -4 32 -31 31 -25 -1 -30 -5
-31 -27z"/>
<path d="M5424 3296 c-3 -8 -4 -104 -2 -213 3 -186 4 -200 26 -235 71 -115
281 -97 322 28 9 26 17 355 11 420 -1 6 -14 11 -31 12 l-30 1 0 -107 c-1 -263
-4 -299 -26 -329 -27 -36 -97 -52 -144 -33 -56 23 -63 52 -64 270 l-1 195 -28
3 c-17 2 -29 -2 -33 -12z"/>
<path d="M5879 3301 c0 -3 -2 -16 -5 -28 -3 -19 1 -23 21 -23 l25 0 0 -205 0
-205 -25 0 c-22 0 -25 -4 -22 -27 l4 -28 114 -3 c63 -2 130 2 150 7 67 20 99
63 99 133 0 50 -19 81 -64 109 -17 10 -26 19 -19 19 7 0 28 14 48 31 31 28 35
37 35 80 0 63 -15 94 -59 122 -32 19 -51 22 -168 23 -73 1 -133 -1 -134 -5z
m247 -61 c37 -15 53 -38 54 -81 0 -58 -32 -80 -121 -82 l-74 -2 -1 85 -2 86
58 2 c33 1 71 -3 86 -8z m-13 -229 c30 -2 67 -47 67 -81 0 -66 -38 -90 -140
-90 l-58 0 1 83 c0 45 4 84 8 87 7 5 67 5 122 1z"/>
<path d="M4467 2583 c-3 -7 -2 -73 2 -103 0 -5 18 -10 39 -10 24 0 32 3 23 9
-7 5 -22 6 -32 4 -16 -5 -19 1 -20 38 -1 24 -1 50 0 57 2 13 -6 16 -12 5z"/>
<path d="M4564 2533 l1 -58 43 -3 c30 -2 42 0 37 8 -3 5 -11 8 -16 4 -6 -3
-21 -3 -34 0 -17 4 -22 11 -18 27 3 12 11 18 19 15 8 -3 14 -1 14 4 0 6 -9 10
-19 10 -14 0 -18 5 -14 21 4 14 12 19 23 16 10 -2 24 -1 31 4 9 6 0 9 -27 9
l-41 0 1 -57z"/>
<path d="M4684 2534 c-14 -31 -23 -59 -20 -62 3 -3 8 3 12 12 9 22 70 22 83
-1 6 -11 11 -13 11 -5 0 15 -48 112 -56 112 -3 0 -16 -25 -30 -56z m51 -1 c5
-20 3 -23 -19 -23 -30 0 -30 0 -14 35 12 27 22 24 33 -12z"/>
<path d="M4795 2536 c0 -30 4 -58 8 -62 4 -4 7 2 7 14 0 28 35 30 50 2 6 -11
16 -20 22 -20 7 0 6 5 -2 15 -11 13 -11 20 0 39 19 37 -1 66 -48 66 l-38 0 1
-54z m70 28 c20 -20 3 -44 -31 -44 -20 0 -24 5 -24 30 0 23 5 30 19 30 11 0
27 -7 36 -16z"/>
<path d="M4919 2585 c-5 -39 -3 -107 3 -111 5 -3 8 16 8 43 l0 47 30 -34 c16
-19 29 -30 29 -25 1 14 -68 92 -70 80z"/>
<path d="M4998 2537 c-3 -28 -1 -56 4 -61 9 -11 9 -10 12 57 2 66 -11 70 -16
4z"/>
<path d="M5130 2530 l0 -60 42 0 c44 0 45 14 1 15 -19 0 -27 6 -29 22 -2 13
-1 22 4 22 4 -1 18 0 32 1 23 2 23 3 -5 9 -38 8 -41 36 -3 36 15 1 30 4 34 8
4 4 -11 7 -34 7 l-42 0 0 -60z"/>
<path d="M5248 2583 c-9 -17 -7 -102 2 -108 6 -4 9 4 6 17 -1 13 1 36 5 53 8
27 -3 58 -13 38z"/>
<path d="M5330 2543 l0 -47 -30 34 c-16 19 -29 31 -29 25 -1 -5 15 -28 34 -50
l34 -40 1 63 c0 34 -2 62 -5 62 -3 0 -5 -21 -5 -47z"/>
<path d="M5392 2574 c-43 -30 -13 -104 42 -104 32 0 58 41 35 56 -5 3 -9 -4
-9 -15 0 -25 -14 -34 -40 -26 -33 11 -44 42 -25 72 14 20 22 24 46 19 19 -3
28 -2 24 4 -9 15 -48 12 -73 -6z"/>
<path d="M5524 2548 c-10 -24 -22 -52 -26 -62 -8 -19 -8 -19 11 -2 10 9 22 34
26 54 6 35 8 36 21 17 19 -25 18 -49 -1 -41 -8 3 -15 1 -15 -4 0 -6 8 -10 17
-10 9 0 25 -8 36 -17 16 -15 15 -10 -7 41 -14 32 -26 60 -26 62 0 2 -4 4 -9 4
-5 0 -17 -19 -27 -42z"/>
<path d="M5631 2564 c-21 -26 -19 -46 7 -76 28 -34 83 -19 81 21 -2 22 -2 23
-6 4 -8 -39 -66 -41 -78 -2 -14 44 26 79 71 62 12 -4 15 -3 10 5 -13 22 -63
14 -85 -14z"/>
<path d="M5759 2588 c-4 -11 -5 -96 -1 -105 2 -8 21 -13 46 -13 26 0 36 3 28
9 -7 4 -24 6 -38 3 -20 -4 -24 0 -24 21 0 22 5 26 33 30 l32 4 -32 1 c-26 2
-33 6 -33 23 0 17 5 20 24 17 14 -3 31 -1 38 3 8 6 -3 9 -29 9 -24 0 -43 -1
-44 -2z"/>
<path d="M5950 2530 l0 -60 35 0 c39 0 75 28 75 60 0 32 -36 60 -75 60 l-35 0
0 -60z m87 24 c7 -10 13 -21 13 -26 0 -18 -43 -49 -63 -46 -19 3 -22 10 -24
50 l-2 47 32 -3 c17 -2 37 -12 44 -22z"/>
<path d="M6089 2575 c-1 -8 -1 -31 -1 -50 0 -19 0 -39 1 -45 1 -5 19 -10 42
-10 22 0 38 4 35 8 -3 5 -19 7 -36 4 -27 -4 -30 -2 -30 23 0 24 3 26 25 21 14
-4 25 -2 25 4 0 5 -11 10 -25 10 -18 0 -25 5 -25 19 0 15 7 19 30 19 17 -1 33
2 37 5 3 4 -12 7 -35 7 -30 0 -42 -4 -43 -15z"/>
<path d="M6180 2586 c0 -8 52 -116 56 -116 8 0 55 102 52 112 -2 6 -14 -12
-27 -42 l-23 -52 -23 51 c-20 43 -35 63 -35 47z"/>
<path d="M6310 2530 l0 -60 40 0 c22 0 40 4 40 8 0 5 -14 7 -30 6 -34 -2 -43
6 -34 31 5 11 15 15 30 12 13 -2 24 0 24 4 0 5 -13 9 -29 9 -39 0 -37 35 3 36
44 2 42 14 -2 14 l-42 0 0 -60z"/>
<path d="M6420 2580 c0 -5 5 -10 11 -10 5 0 7 5 4 10 -3 6 -8 10 -11 10 -2 0
-4 -4 -4 -10z"/>
<path d="M6532 2574 c-33 -23 -27 -73 11 -94 24 -13 30 -13 55 0 33 19 41 63
16 91 -21 23 -52 24 -82 3z m66 -10 c29 -20 28 -50 -2 -69 -46 -31 -97 25 -60
66 21 23 33 24 62 3z"/>
<path d="M6661 2528 c1 -35 4 -53 6 -40 3 15 11 22 28 22 38 0 55 11 55 34 0
31 -19 46 -57 46 l-33 0 1 -62z m60 42 c36 -20 17 -50 -32 -50 -15 0 -19 6
-17 30 2 32 16 37 49 20z"/>
<path d="M6830 2570 c-35 -35 -5 -99 47 -100 12 0 25 5 29 11 4 7 0 9 -14 5
-33 -11 -62 10 -62 44 0 35 27 53 67 44 22 -4 25 -3 13 5 -24 17 -58 13 -80
-9z"/>
<path d="M6950 2570 c-11 -11 -20 -29 -20 -40 0 -48 71 -78 102 -42 26 30 28
50 7 76 -25 31 -61 34 -89 6z m81 -11 c16 -25 9 -55 -15 -68 -45 -25 -90 25
-60 67 16 23 61 23 75 1z"/>
<path d="M7080 2528 c0 -42 3 -58 9 -48 6 8 7 27 4 42 -8 39 5 35 49 -14 l37
-43 0 65 c0 38 -3 57 -8 46 -4 -10 -6 -32 -5 -50 l2 -31 -34 40 c-18 22 -34
43 -34 48 0 4 -4 7 -10 7 -6 0 -10 -27 -10 -62z"/>
<path d="M7219 2570 c-3 -41 0 -93 6 -98 3 -3 5 17 5 44 l1 49 29 -35 c16 -19
30 -30 30 -25 0 6 -16 28 -35 50 -33 39 -34 39 -36 15z"/>
<path d="M7307 2583 c-10 -9 -9 -33 1 -33 4 0 8 9 9 20 2 21 0 24 -10 13z"/>
<path d="M7359 2588 c-1 -2 -3 -29 -4 -60 l-2 -58 38 0 c22 0 39 4 39 8 0 5
-13 7 -30 4 -27 -4 -30 -2 -30 22 0 16 4 25 10 21 6 -3 10 -1 10 4 0 6 -6 11
-14 11 -8 0 -13 8 -12 18 2 12 12 17 35 16 17 0 31 4 31 8 0 7 -68 12 -71 6z"/>
<path d="M7470 2568 c-46 -50 24 -126 80 -87 11 8 7 9 -16 4 -37 -7 -64 14
-64 50 0 32 14 39 81 41 l57 1 -2 -53 c0 -30 2 -54 7 -54 4 0 7 25 7 56 0 45
3 55 15 51 8 -4 17 -2 20 3 4 6 -29 9 -80 9 -72 -1 -90 -5 -105 -21z"/>
<path d="M7683 2530 c0 -36 2 -50 4 -32 2 17 2 47 0 65 -2 17 -4 3 -4 -33z"/>
<path d="M7742 2574 c-26 -18 -28 -50 -6 -82 29 -42 104 -16 104 37 0 52 -53
77 -98 45z m70 -11 c23 -21 23 -45 -1 -67 -26 -24 -67 -12 -76 22 -5 20 -1 31
15 44 27 22 38 22 62 1z"/>
<path d="M7871 2530 c-1 -39 3 -60 8 -52 4 8 6 30 4 50 l-4 37 45 -50 45 -50
1 63 c0 35 -4 61 -9 58 -4 -3 -7 -25 -5 -48 l3 -43 -44 50 -44 50 0 -65z"/>
<path d="M8013 2583 c-26 -10 -13 -43 22 -57 26 -11 33 -19 28 -31 -4 -13 -13
-15 -35 -11 -18 3 -27 2 -23 -4 3 -6 15 -10 25 -10 60 0 69 43 14 66 -40 17
-40 40 0 37 14 -1 26 2 26 8 0 9 -36 11 -57 2z"/>
<path d="M6423 2515 l0 -45 41 1 c31 0 36 2 21 8 -11 5 -26 6 -32 4 -13 -5
-18 13 -14 55 1 12 -2 22 -7 22 -5 0 -9 -20 -9 -45z"/>
<path d="M7297 2513 c-3 -16 -1 -32 4 -37 10 -11 11 -9 13 37 1 15 -1 27 -5
27 -4 0 -9 -12 -12 -27z"/>
<path d="M7400 2536 c0 -2 7 -7 16 -10 8 -3 12 -2 9 4 -6 10 -25 14 -25 6z"/>
<path d="M5044 2471 c0 -11 4 -17 8 -15 4 3 8 12 8 20 0 8 -4 14 -8 14 -4 0
-8 -9 -8 -19z"/>
<path d="M5860 2470 c0 -11 2 -20 4 -20 2 0 6 9 9 20 3 11 1 20 -4 20 -5 0 -9
-9 -9 -20z"/>
</g>
</svg>
